# xmcd
#
# Track frame offsets:
#	150
#	16493
#	30859
#	48832
#	60912
#	83372
#	98250
#	129333
#	146929
#	180100
#
# Disc length: 2589 seconds
#
# Revision: 1
# Processed by: cddbd v1.5.1PL2 Copyright (c) Steve Scherf et al.
# Submitted via: EasyCDDAExtractor 8.2.3.1
#
DISCID=610a1b0a
DTITLE=Jacó e Jacózinho - Piadas e Músicas
DYEAR=1969
DGENRE=Sertanejo
TTITLE0=Piadas
TTITLE1=Jacarana
TTITLE2=Piadas
TTITLE3=A menina que namora
TTITLE4=Piadas
TTITLE5=Vira vira
TTITLE6=Piadas
TTITLE7=Conversando é que se entende
TTITLE8=Piadas
TTITLE9=Porta aberta
EXTD=
EXTT0=
EXTT1=
EXTT2=
EXTT3=
EXTT4=
EXTT5=
EXTT6=
EXTT7=
EXTT8=
EXTT9=
PLAYORDER=
